<svg xmlns="http://www.w3.org/2000/svg" width="1200" height="400" viewBox="0 0 1200 400"><defs><linearGradient id="g" x1="0" y1="0" x2="1200" y2="400" gradientUnits="userSpaceOnUse"><stop offset="0" stop-color="#a4d5a6"/><stop offset="1" stop-color="#307e33"/></linearGradient></defs><rect width="1200" height="400" fill="url(#g)"/><g transform="translate(600.0 200.0) scale(1.3)"><path d="M0 44 V0" fill="none" stroke="#fff" stroke-width="7" stroke-linecap="round" stroke-linejoin="round"/><path d="M0 24 C-20 24 -26 12 -26 4 C-14 4 -2 10 0 24" fill="none" stroke="#fff" stroke-width="7" stroke-linecap="round" stroke-linejoin="round"/><circle cx="0" cy="-20" r="9" fill="none" stroke="#fff" stroke-width="7"/><path d="M0 -29 A10 10 0 1 1 13 -26 M13 -26 A10 10 0 1 1 13 -14 M13 -14 A10 10 0 1 1 0 -11 M0 -11 A10 10 0 1 1 -13 -14 M-13 -14 A10 10 0 1 1 -13 -26 M-13 -26 A10 10 0 1 1 0 -29" fill="none" stroke="#fff" stroke-width="5" stroke-linecap="round" stroke-linejoin="round"/></g></svg>