<svg xmlns="http://www.w3.org/2000/svg" width="1200" height="400" viewBox="0 0 1200 400"><defs><linearGradient id="g" x1="0" y1="0" x2="1200" y2="400" gradientUnits="userSpaceOnUse"><stop offset="0" stop-color="#a4d5a6"/><stop offset="1" stop-color="#307e33"/></linearGradient></defs><rect width="1200" height="400" fill="url(#g)"/><g transform="translate(600.0 200.0) scale(1.3)"><path d="M-14 44 V16" fill="none" stroke="#fff" stroke-width="7" stroke-linecap="round" stroke-linejoin="round"/><path d="M-14 -40 L-40 16 H12 Z" fill="none" stroke="#fff" stroke-width="7" stroke-linecap="round" stroke-linejoin="round"/><path d="M-46 44 H46" fill="none" stroke="#fff" stroke-width="7" stroke-linecap="round" stroke-linejoin="round"/><g transform="translate(30 -22) scale(0.5)"><circle cx="0" cy="0" r="12" fill="none" stroke="#fff" stroke-width="14.0"/><path d="M21.0 0.0 L31.0 0.0 M14.8 14.8 L21.9 21.9 M0.0 21.0 L0.0 31.0 M-14.8 14.8 L-21.9 21.9 M-21.0 0.0 L-31.0 0.0 M-14.8 -14.8 L-21.9 -21.9 M-0.0 -21.0 L-0.0 -31.0 M14.8 -14.8 L21.9 -21.9" fill="none" stroke="#fff" stroke-width="14.0" stroke-linecap="round" stroke-linejoin="round"/></g></g></svg>