<svg xmlns="http://www.w3.org/2000/svg" width="1200" height="400" viewBox="0 0 1200 400"><defs><linearGradient id="g" x1="0" y1="0" x2="1200" y2="400" gradientUnits="userSpaceOnUse"><stop offset="0" stop-color="#ee534f"/><stop offset="1" stop-color="#b61c1c"/></linearGradient></defs><rect width="1200" height="400" fill="url(#g)"/><g transform="translate(600.0 200.0) scale(1.3)"><circle cx="0" cy="0" r="44" fill="none" stroke="#fff" stroke-width="5"/><circle cx="0" cy="0" r="6" fill="#fff"/><path d="M-8.5 -14.7 L-19 -32.9 A38 38 0 0 1 19 -32.9 L8.5 -14.7 A17 17 0 0 0 -8.5 -14.7 Z" fill="#fff"/><g transform="rotate(120)"><path d="M-8.5 -14.7 L-19 -32.9 A38 38 0 0 1 19 -32.9 L8.5 -14.7 A17 17 0 0 0 -8.5 -14.7 Z" fill="#fff"/></g><g transform="rotate(240)"><path d="M-8.5 -14.7 L-19 -32.9 A38 38 0 0 1 19 -32.9 L8.5 -14.7 A17 17 0 0 0 -8.5 -14.7 Z" fill="#fff"/></g></g></svg>